# xmcd CD database file
#
# Track frame offsets:
#	150
#	12122
#	23298
#	35889
#	46316
#	58417
#	69052
#	81157
#	92124
#	100827
#
# Disc length: 1521 seconds
#
# Revision: 0
# Processed by: cddbd v1.5.1PL2 Copyright (c) Steve Scherf et al.
# Submitted via: CDex 1.70beta2
#
DISCID=7405ef0a
DTITLE=Various Artist - That's Country - 50's Hits
DYEAR=2004
DGENRE=Country
TTITLE0=Hank Thompson - The Wild Side Of Life
TTITLE1=Kitty Wells - It Wasn't God Who Made Honky Tonk Angels
TTITLE2=Carl Smith - Let Old Mother Nature Have Her Way
TTITLE3=Hank Locklin - Let Me Be The One
TTITLE4=Porter Wagoner - Satisfied Mind
TTITLE5=Ferlin Husky - Gone
TTITLE6=Bobby Helms - Fraulein
TTITLE7=Don Gibson - Oh Lonesome Me
TTITLE8=Faron Young - Alone With You
TTITLE9=Ray Price - Heartaches By The Numbers
EXTD=YEAR: 2004
EXTT0=
EXTT1=
EXTT2=
EXTT3=
EXTT4=
EXTT5=
EXTT6=
EXTT7=
EXTT8=
EXTT9=
PLAYORDER=
